# xmcd
#
# Track frame offsets: 
#        150
#        4456
#        20993
#        44427
#        71156
#        90950
#        115930
#        151560
#        166785
#        185060
#
# Disc length: 3136 seconds
#
# Revision: 0
# Processed by: cddbd v1.5.2PL0 Copyright (c) Steve Scherf et al.
# Submitted via: ExactAudioCopy v0.99pb4
#
DISCID=7c0c3e0a
DTITLE=Point Whitmark - 21 Gefahr am schwarzen Wasser
DYEAR=2008
DGENRE=Other
TTITLE0=Gefahr am schwarzen Wasser 01
TTITLE1=Gefahr am schwarzen Wasser 02
TTITLE2=Gefahr am schwarzen Wasser 03
TTITLE3=Gefahr am schwarzen Wasser 04
TTITLE4=Gefahr am schwarzen Wasser 05
TTITLE5=Gefahr am schwarzen Wasser 06
TTITLE6=Gefahr am schwarzen Wasser 07
TTITLE7=Gefahr am schwarzen Wasser 08
TTITLE8=Gefahr am schwarzen Wasser 09
TTITLE9=Gefahr am schwarzen Wasser 10
EXTD=
EXTT0=
EXTT1=
EXTT2=
EXTT3=
EXTT4=
EXTT5=
EXTT6=
EXTT7=
EXTT8=
EXTT9=
PLAYORDER=
